<?xml version="1.0" encoding="UTF-8" standalone="no"?>
<!-- Created with Inkscape (http://www.inkscape.org/) -->

<svg
   width="250.00002mm"
   height="100.34mm"
   viewBox="0 0 250.00002 100.34"
   version="1.1"
   id="svg1"
   xml:space="preserve"
   inkscape:version="1.3 (0e150ed6c4, 2023-07-21)"
   sodipodi:docname="logo-apsensi.svg"
   inkscape:export-filename="logo-apsensi2.png"
   inkscape:export-xdpi="96"
   inkscape:export-ydpi="96"
   xmlns:inkscape="http://www.inkscape.org/namespaces/inkscape"
   xmlns:sodipodi="http://sodipodi.sourceforge.net/DTD/sodipodi-0.dtd"
   xmlns="http://www.w3.org/2000/svg"
   xmlns:svg="http://www.w3.org/2000/svg"><sodipodi:namedview
     id="namedview1"
     pagecolor="#ffffff"
     bordercolor="#000000"
     borderopacity="0.25"
     inkscape:showpageshadow="2"
     inkscape:pageopacity="0.0"
     inkscape:pagecheckerboard="0"
     inkscape:deskcolor="#d1d1d1"
     inkscape:document-units="mm"
     inkscape:zoom="0.5"
     inkscape:cx="514"
     inkscape:cy="540"
     inkscape:window-width="1536"
     inkscape:window-height="892"
     inkscape:window-x="0"
     inkscape:window-y="32"
     inkscape:window-maximized="1"
     inkscape:current-layer="layer1" /><defs
     id="defs1" /><g
     inkscape:label="Layer 1"
     inkscape:groupmode="layer"
     id="layer1"
     transform="translate(-29.249002,-62.336084)"><rect
       style="fill:#ffffff;fill-opacity:1;stroke-width:0.232872"
       id="rect1"
       width="250"
       height="100.34"
       x="29.249002"
       y="62.336086"
       inkscape:export-filename="../Htdocs/websiteapp/public/assets/img/logo.svg"
       inkscape:export-xdpi="96"
       inkscape:export-ydpi="96" /><g
       id="g1"
       transform="translate(1.0756298,3.353595)"><g
         id="g31"
         transform="matrix(0.40178301,0,0,0.40178301,35.244383,61.707333)"
         inkscape:export-filename="../Htdocs/websiteapp/public/assets/img/logo.svg"
         inkscape:export-xdpi="96"
         inkscape:export-ydpi="96"><circle
           id="path7"
           style="fill:#c83737;stroke:#000000;stroke-width:0.264583"
           cx="25.495564"
           cy="160.73393"
           r="0.01538107" /><path
           style="fill:#fd00fd"
           d="m 93.166371,203.02137 c 0.0899,-0.14552 0.21603,-0.26459 0.2802,-0.26459 0.0642,0 0.11668,0.11907 0.11668,0.26459 0,0.14552 -0.12609,0.26458 -0.2802,0.26458 -0.15411,0 -0.20662,-0.11906 -0.11668,-0.26458 z M 22.272111,155.9483 c -0.1526,-0.24692 2.3984,-4.75922 2.89001,-5.11195 0.149,-0.10691 0.16317,-0.1962 0.0315,-0.19843 -0.13169,-0.002 -0.0623,-0.21241 0.15423,-0.46708 0.21652,-0.25466 0.78916,-1.17739 1.27252,-2.05052 1.75334,-3.16715 2.22947,-4.00302 3.39104,-5.95312 0.65008,-1.09141 1.54275,-2.63922 1.9837,-3.43958 0.44095,-0.80037 1.25824,-2.21152 1.8162,-3.1359 0.55796,-0.92438 1.01447,-1.71835 1.01447,-1.76438 0,-0.046 0.71437,-1.29372 1.5875,-2.77264 0.87312,-1.47892 1.5875,-2.79831 1.5875,-2.93198 0,-0.13366 0.11906,-0.24302 0.26458,-0.24302 0.14552,0 0.26458,-0.1786 0.26458,-0.39688 0,-0.21828 0.11907,-0.39687 0.26459,-0.39687 0.14552,0 0.26458,-0.14133 0.26458,-0.31408 0,-0.40625 3.15929,-5.84262 3.5438,-6.09802 0.16096,-0.10691 0.21337,-0.19621 0.11646,-0.19843 -0.0969,-0.002 1.3179,-2.59366 3.14402,-5.75874 1.82613,-3.16508 3.67976,-6.40953 4.11918,-7.2099 0.43943,-0.80036 1.01891,-1.77124 1.28775,-2.15751 0.26883,-0.38627 0.48879,-0.78572 0.48879,-0.88767 0,-0.10195 0.33166,-0.67889 0.73702,-1.28207 0.40536,-0.60319 1.50669,-2.43993 2.4474,-4.081655 0.9407,-1.64172 1.83126,-3.18953 1.97901,-3.43958 0.14774,-0.25005 0.72006,-1.30265 1.27181,-2.33912 0.55174,-1.03646 1.23453,-2.13281 1.5173,-2.43633 0.28277,-0.30352 0.51413,-0.71936 0.51413,-0.92411 0,-0.20474 0.23812,-0.67498 0.52916,-1.04498 0.29104,-0.37 0.52917,-0.74527 0.52917,-0.83393 0,-0.0887 0.52038,-1.02239 1.1564,-2.07494 0.63601,-1.05255 1.43968,-2.42996 1.78593,-3.06092 0.93166,-1.69774 1.36462,-2.4343 2.16089,-3.67619 0.39469,-0.61557 0.71761,-1.17747 0.71761,-1.24866 0,-0.0712 0.58147,-1.11535 1.29216,-2.32036 0.71069,-1.20501 1.52584,-2.60765 1.81145,-3.11697 0.81582,-1.45483 2.26289,-3.92534 2.92024,-4.98557 0.32994,-0.53216 0.70404,-1.2094 0.83134,-1.50499 0.1273,-0.29559 0.89915,-1.65026 1.71522,-3.01037 0.81607,-1.36011 1.48376,-2.5156 1.48376,-2.56775 0,-0.14031 2.63722,-4.61634 3.21063,-5.44925 0.27144,-0.39429 0.49354,-0.77803 0.49354,-0.85275 0,-0.0747 1.19062,-2.17222 2.64583,-4.66111 1.45521,-2.48889 2.64583,-4.63523 2.64583,-4.76965 0,-0.13442 0.0893,-0.24624 0.19844,-0.24851 0.10914,-0.002 0.48976,-0.59757 0.84581,-1.32291 0.35606,-0.72535 0.76286,-1.31881 0.904,-1.31881 0.14114,0 0.184,-0.0726 0.0952,-0.16136 -0.0887,-0.0887 0.13593,-0.63229 0.49929,-1.20787 0.68242,-1.08103 0.89642,-1.45567 2.61848,-4.58389 0.56075,-1.01865 1.22485,-2.1216 1.47578,-2.451 l 0.45623,-0.59891 1.21586,2.10794 c 0.66873,1.15936 1.21586,2.22263 1.21586,2.3628 0,0.14017 0.0985,0.29455 0.21891,0.34306 0.12041,0.0485 1.20676,1.8146 2.41413,3.92465 1.20737,2.11005 2.403989,4.19365 2.659149,4.63021 0.79726,1.36407 6.9158,11.98183 9.56265,16.59449 0.56109,0.9778 1.02016,1.89061 1.02016,2.02847 0,0.13786 0.0893,0.29034 0.19844,0.33884 0.23706,0.10537 1.88486,2.7999 2.69499,4.40696 l 0.57658,1.14375 -0.77615,1.2375 c -0.42688,0.68062 -2.08498,3.49968 -3.68466,6.26457 -2.44744,4.23017 -4.07343,7.05443 -9.59661,16.66875 -0.25079,0.43657 -1.798299,3.11547 -3.438899,5.953125 -1.64061,2.83765 -3.21519,5.57609 -3.49907,6.08541 -0.28388,0.50933 -0.62399,1.03916 -0.7558,1.1774 -0.13181,0.13825 -0.23965,0.41532 -0.23965,0.61571 0,0.2004 -0.84938,1.81369 -1.88751,3.58511 -1.03813,1.77141 -2.09252,3.57793 -2.34309,4.01449 -1.68931,2.94325 -13.29116,23.03812 -15.98285,27.68296 -0.30599,0.52802 -1.98509,3.4692 -3.73134,6.53594 l -3.175,5.5759 -21.74637,0.0125 c -12.86231,0.007 -21.80742,-0.0863 -21.89581,-0.22932 z"
           id="path29" /><path
           style="fill:#a800fd"
           d="m 92.380321,201.93629 c -0.37858,-0.64013 -1.23739,-2.11638 -1.90846,-3.28055 -2.10028,-3.64353 -4.86783,-8.4061 -5.76566,-9.92187 -0.47408,-0.80037 -1.1608,-1.99099 -1.52605,-2.64584 -1.39068,-2.49328 -5.8775,-10.26807 -6.983,-12.10018 -0.6351,-1.05255 -1.15474,-1.97765 -1.15474,-2.05578 0,-0.0781 -0.29682,-0.61225 -0.65961,-1.18694 -0.36278,-0.57469 -1.56845,-2.62615 -2.67926,-4.55881 -2.62739,-4.57127 -2.79516,-4.86108 -3.71909,-6.42433 -0.43003,-0.7276 -0.95198,-1.70987 -1.15988,-2.18281 -0.2079,-0.47294 -0.468,-0.8599 -0.578,-0.8599 -0.57335,0 0.0902,-1.42968 3.00871,-6.48292 1.76479,-3.05559 3.41401,-5.91281 3.66494,-6.34937 0.25092,-0.43656 2.03932,-3.53219 3.97422,-6.87917 3.22758,-5.58307 10.82883,-18.75547 11.90904,-20.6375 0.25057,-0.43656 1.30496,-2.24308 2.34309,-4.01449 1.03813,-1.77142 1.88751,-3.4015 1.88751,-3.62241 0,-0.22091 0.10796,-0.46838 0.23991,-0.54993 0.13195,-0.0815 0.18715,0.0602 0.12266,0.31511 -0.0664,0.2624 0.66785,1.78313 1.6928,3.5061 0.99553,1.67349 2.23054,3.81661 2.74447,4.7625 0.51393,0.94588 1.66827,2.95126 2.565209,4.45638 0.89693,1.50513 1.63078,2.78742 1.63078,2.84953 0,0.0621 0.27874,0.55706 0.61941,1.09987 0.34068,0.54281 0.91761,1.52271 1.28207,2.17755 1.15137,2.06874 3.67259,6.4098 4.87627,8.39602 0.63786,1.05255 1.15975,1.97765 1.15975,2.05578 0,0.0781 0.27874,0.58617 0.61941,1.12898 0.34068,0.54281 0.92155,1.52271 1.29083,2.17756 0.36928,0.65484 1.53513,2.6789 2.59077,4.49791 3.51738,6.06091 5.10896,8.8345 5.45925,9.51364 l 0.34704,0.67282 1.2625,0.15687 1.26249,0.15687 -1.21058,0.0416 -1.21058,0.0416 -2.6132,4.56406 c -1.43725,2.51023 -4.03514,7.00484 -5.77307,9.98802 -1.73793,2.98318 -3.5204,6.0788 -3.96104,6.87917 -0.44064,0.80036 -1.53788,2.70536 -2.4383,4.23333 -0.90043,1.52797 -2.62283,4.50453 -3.82755,6.61458 -4.657559,8.15763 -8.024839,13.90602 -8.353649,14.26076 l -0.34307,0.37014 z m 31.017779,-45.9333 c 0.32912,-0.0633 0.80537,-0.0609 1.05833,0.005 0.25297,0.0662 -0.0163,0.118 -0.59839,0.11506 -0.58209,-0.003 -0.78906,-0.0571 -0.45994,-0.1204 z m 4.77459,-0.0106 c 1.79098,-0.0458 4.64848,-0.0457 6.35,3.1e-4 1.70152,0.046 0.23618,0.0835 -3.25632,0.0833 -3.4925,-1.7e-4 -4.88466,-0.0378 -3.09368,-0.0837 z m 10.30831,0.006 c 0.47555,-0.0589 1.18993,-0.0577 1.5875,0.003 0.39758,0.0604 0.009,0.10855 -0.86463,0.10707 -0.87312,-0.001 -1.19841,-0.0509 -0.72287,-0.10977 z m 3.175,0 c 0.47555,-0.0589 1.18993,-0.0577 1.5875,0.003 0.39758,0.0604 0.009,0.10855 -0.86463,0.10707 -0.87312,-0.001 -1.19841,-0.0509 -0.72287,-0.10977 z m 7.42101,-0.006 c 2.81086,-0.0429 7.33523,-0.0428 10.05417,1.5e-4 2.71894,0.043 0.41915,0.0781 -5.11064,0.078 -5.5298,-8e-5 -7.75438,-0.0352 -4.94353,-0.0781 z M 100.97158,94.822835 c 0,-0.13694 0.1177,-0.32171 0.26155,-0.41062 0.14998,-0.0927 0.19434,0.0135 0.10399,0.24897 -0.1759,0.45837 -0.36554,0.54223 -0.36554,0.16165 z m 3.96875,-6.89479 c 0.15576,-0.29104 0.34273,-0.52916 0.41549,-0.52916 0.0728,0 0.005,0.23812 -0.15091,0.52916 -0.15576,0.29105 -0.34273,0.52917 -0.41549,0.52917 -0.0728,0 -0.005,-0.23812 0.15091,-0.52917 z"
           id="path27" /><path
           style="fill:#6500fd"
           d="m 120.10433,155.49496 c -0.17043,-0.44412 -0.89723,-1.72128 -5.10013,-8.96214 -1.35147,-2.32833 -2.75888,-4.76911 -3.12759,-5.42395 -0.3687,-0.65485 -0.94911,-1.63475 -1.28979,-2.17756 -0.34067,-0.54281 -0.61941,-1.05085 -0.61941,-1.12898 0,-0.0781 -0.52189,-1.00323 -1.15975,-2.05578 -1.20368,-1.98622 -3.7249,-6.32728 -4.87627,-8.39602 -0.36446,-0.65484 -0.94139,-1.63474 -1.28207,-2.17755 -0.34067,-0.54281 -0.61941,-1.03775 -0.61941,-1.09987 0,-0.0621 -0.73385,-1.3444 -1.63078,-2.84953 -0.896939,-1.50512 -2.051279,-3.5105 -2.565209,-4.45638 -0.51393,-0.94589 -1.74461,-3.08549 -2.73484,-4.75466 -0.99023,-1.66918 -1.79978,-3.15747 -1.799,-3.3073 10e-4,-0.27003 0.56588,-1.27082 6.34687,-11.252625 1.643429,-2.83765 5.450909,-9.44562 8.461059,-14.68437 5.50508,-9.58085 6.80788,-11.77396 6.9942,-11.77396 0.0905,0 1.89294,3.0725 4.65646,7.9375 0.5373,0.94589 1.43063,2.4937 1.98517,3.43958 0.55454,0.94589 1.36183,2.37464 1.79398,3.175 0.43216,0.80037 1.04755,1.87193 1.36754,2.38125 0.75974,1.20927 2.28123,3.79137 3.1181,5.29167 0.36526,0.65484 1.07799,1.905 1.58382,2.77813 4.04234,6.977515 5.1545,8.915935 5.84443,10.186445 0.43463,0.80037 0.93396,1.63381 1.10963,1.85209 0.17567,0.21828 0.67789,1.05172 1.11603,1.85208 0.82773,1.51204 1.25421,2.25584 4.70288,8.20209 1.13938,1.96453 2.5899,4.50069 3.22339,5.63591 0.63349,1.13522 1.66278,2.92116 2.28731,3.96875 1.14923,1.92773 2.45111,4.16866 4.44976,7.6594 2.75654,4.81442 3.26527,5.69662 3.92878,6.81302 0.71194,1.19787 2.08921,3.58282 4.04899,7.01146 0.58225,1.01864 1.32409,2.27473 1.64853,2.7913 0.65296,1.03964 1.9754,3.59326 1.9754,3.81449 0,0.0776 -9.82639,0.14108 -21.83643,0.14108 h -21.83643 z"
           id="path26" /></g><text
         xml:space="preserve"
         style="font-size:53.4984px;fill:#1a1a1a;stroke-width:0.501548"
         x="103.85458"
         y="123.03532"
         id="text1"><tspan
           sodipodi:role="line"
           id="tspan1"
           x="103.85458"
           y="123.03532"
           style="font-style:normal;font-variant:normal;font-weight:bold;font-stretch:normal;font-size:53.4984px;font-family:Quicksand;-inkscape-font-specification:'Quicksand Bold';fill:#1a1a1a;stroke-width:0.501548">psensi</tspan></text></g></g></svg>
